<svg width="4" height="2" viewBox="0 0 4 2" fill="none" xmlns="http://www.w3.org/2000/svg">
<path d="M0.554688 1.92533V0.964742H0.928368C1.09023 0.964742 1.20071 1.052 1.20071 1.2012C1.20071 1.31942 1.13386 1.38698 1.04308 1.41302V1.41935C1.17256 1.43554 1.25349 1.5228 1.25349 1.6558C1.25349 1.83174 1.11204 1.92533 0.918516 1.92533H0.554688ZM0.698952 1.08367V1.37361H0.838994C0.982555 1.37361 1.05574 1.32927 1.05574 1.22583C1.05574 1.1273 0.988889 1.08367 0.900219 1.08367H0.698952ZM0.698952 1.48832V1.8064H0.857291C1.00156 1.8064 1.10571 1.77755 1.10571 1.65229C1.10571 1.5425 1.029 1.48832 0.91359 1.48832H0.698952Z" fill="white"/>
<path d="M1.99874 1.79796V1.92533H1.42309V0.964742H1.56806V1.79796H1.99874Z" fill="white"/>
<path d="M2.22323 1.38065V1.51717C2.22323 1.72266 2.3302 1.81907 2.47094 1.81907C2.61239 1.81907 2.71866 1.72266 2.71866 1.51717V1.38065C2.71866 1.17586 2.61239 1.07101 2.47094 1.07101C2.3302 1.07101 2.22323 1.17586 2.22323 1.38065ZM2.07686 1.51717V1.38205C2.07686 1.10901 2.23168 0.945038 2.47235 0.945038C2.71303 0.945038 2.86503 1.10901 2.86503 1.38205V1.51717C2.86503 1.78881 2.71092 1.94504 2.46954 1.94504C2.22886 1.94504 2.07686 1.78881 2.07686 1.51717Z" fill="white"/>
<path d="M3.76581 1.26242H3.62295C3.60747 1.13223 3.51176 1.07171 3.40057 1.07171C3.26545 1.07171 3.15497 1.16249 3.15497 1.37854V1.50661C3.15497 1.69732 3.23519 1.81907 3.39916 1.81907C3.53428 1.81907 3.62788 1.73462 3.62788 1.61991V1.53758H3.39635V1.41935H3.76792V1.61499C3.76792 1.7494 3.67643 1.94504 3.39916 1.94504C3.13667 1.94504 3.01 1.76981 3.01 1.50661V1.37783C3.01 1.1069 3.16412 0.945038 3.40339 0.945038C3.63491 0.945038 3.75595 1.09634 3.76581 1.26242Z" fill="white"/>
</svg>
