<svg width="162" height="50" viewBox="0 0 162 50" fill="none" xmlns="http://www.w3.org/2000/svg">
<path d="M0.554688 49V1.01172H19.2227C27.3086 1.01172 32.8281 5.37109 32.8281 12.8242C32.8281 18.7305 29.4883 22.1055 24.9531 23.4062V23.7227C31.4219 24.5312 35.4648 28.8906 35.4648 35.5352C35.4648 44.3242 28.3984 49 18.7305 49H0.554688ZM7.76172 6.95312V21.4375H14.7578C21.9297 21.4375 25.5859 19.2227 25.5859 14.0547C25.5859 9.13281 22.2461 6.95312 17.8164 6.95312H7.76172ZM7.76172 27.168V43.0586H15.6719C22.8789 43.0586 28.082 41.6172 28.082 35.3594C28.082 29.875 24.25 27.168 18.4844 27.168H7.76172Z" fill="white"/>
<path d="M72.6953 42.6367V49H43.9375V1.01172H51.1797V42.6367H72.6953Z" fill="white"/>
<path d="M83.9102 21.7891V28.6094C83.9102 38.875 89.2539 43.6914 96.2852 43.6914C103.352 43.6914 108.66 38.875 108.66 28.6094V21.7891C108.66 11.5586 103.352 6.32031 96.2852 6.32031C89.2539 6.32031 83.9102 11.5586 83.9102 21.7891ZM76.5977 28.6094V21.8594C76.5977 8.21875 84.332 0.0273438 96.3555 0.0273438C108.379 0.0273438 115.973 8.21875 115.973 21.8594V28.6094C115.973 42.1797 108.273 49.9844 96.2148 49.9844C84.1914 49.9844 76.5977 42.1797 76.5977 28.6094Z" fill="white"/>
<path d="M160.973 15.8828H153.836C153.062 9.37891 148.281 6.35547 142.727 6.35547C135.977 6.35547 130.457 10.8906 130.457 21.6836V28.082C130.457 37.6094 134.465 43.6914 142.656 43.6914C149.406 43.6914 154.082 39.4727 154.082 33.7422V29.6289H142.516V23.7227H161.078V33.4961C161.078 40.2109 156.508 49.9844 142.656 49.9844C129.543 49.9844 123.215 41.2305 123.215 28.082V21.6484C123.215 8.11328 130.914 0.0273438 142.867 0.0273438C154.434 0.0273438 160.48 7.58594 160.973 15.8828Z" fill="white"/>
</svg>
