<svg width="280" height="51" viewBox="0 0 280 51" fill="none" xmlns="http://www.w3.org/2000/svg">
<path d="M0.554688 49.8884V1.90013H19.2227C27.3086 1.90013 32.8281 6.25951 32.8281 13.7126C32.8281 19.6189 29.4883 22.9939 24.9531 24.2947V24.6111C31.4219 25.4197 35.4648 29.779 35.4648 36.4236C35.4648 45.2126 28.3984 49.8884 18.7305 49.8884H0.554688ZM7.76172 7.84154V22.3259H14.7578C21.9297 22.3259 25.5859 20.1111 25.5859 14.9431C25.5859 10.0212 22.2461 7.84154 17.8164 7.84154H7.76172ZM7.76172 28.0564V43.947H15.6719C22.8789 43.947 28.082 42.5056 28.082 36.2478C28.082 30.7634 24.25 28.0564 18.4844 28.0564H7.76172Z" fill="white"/>
<path d="M49.3164 22.6775V29.4978C49.3164 39.7634 54.6602 44.5798 61.6914 44.5798C68.7578 44.5798 74.0664 39.7634 74.0664 29.4978V22.6775C74.0664 12.447 68.7578 7.20872 61.6914 7.20872C54.6602 7.20872 49.3164 12.447 49.3164 22.6775ZM42.0039 29.4978V22.7478C42.0039 9.10716 49.7383 0.915756 61.7617 0.915756C73.7852 0.915756 81.3789 9.10716 81.3789 22.7478V29.4978C81.3789 43.0681 73.6797 50.8728 61.6211 50.8728C49.5977 50.8728 42.0039 43.0681 42.0039 29.4978Z" fill="white"/>
<path d="M95.9336 22.6775V29.4978C95.9336 39.7634 101.277 44.5798 108.309 44.5798C115.375 44.5798 120.684 39.7634 120.684 29.4978V22.6775C120.684 12.447 115.375 7.20872 108.309 7.20872C101.277 7.20872 95.9336 12.447 95.9336 22.6775ZM88.6211 29.4978V22.7478C88.6211 9.10716 96.3555 0.915756 108.379 0.915756C120.402 0.915756 127.996 9.10716 127.996 22.7478V29.4978C127.996 43.0681 120.297 50.8728 108.238 50.8728C96.2148 50.8728 88.6211 43.0681 88.6211 29.4978Z" fill="white"/>
<path d="M172.996 1.90013L155.348 22.3962L173.875 49.8884H164.875L150.004 27.3533L144.414 33.5056V49.8884H137.172V1.90013H144.414V24.5408H144.73L164.699 1.90013H172.996Z" fill="white"/>
<path d="M200.699 49.8884H194.195V1.90013H201.367L216.555 36.9861H216.73L231.883 1.90013H239.055V49.8884H232.516V16.0329H232.234L219.367 45.2126H213.848L200.945 16.0329H200.699V49.8884Z" fill="white"/>
<path d="M279.766 43.6658V49.8884H250.305V1.90013H279.766V8.12279H257.512V22.4665H278.5V28.4431H257.512V43.6658H279.766Z" fill="white"/>
</svg>
