<svg width="7" height="2" viewBox="0 0 7 2" fill="none" xmlns="http://www.w3.org/2000/svg">
<path d="M0.767914 1.92533V0.964742H1.14159C1.30345 0.964742 1.41394 1.052 1.41394 1.2012C1.41394 1.31942 1.34708 1.38698 1.2563 1.41302V1.41935C1.38579 1.43554 1.46672 1.5228 1.46672 1.6558C1.46672 1.83174 1.32527 1.92533 1.13174 1.92533H0.767914ZM0.912178 1.08367V1.37361H1.05222C1.19578 1.37361 1.26897 1.32927 1.26897 1.22583C1.26897 1.1273 1.20212 1.08367 1.11345 1.08367H0.912178ZM0.912178 1.48832V1.8064H1.07052C1.21478 1.8064 1.31893 1.77755 1.31893 1.65229C1.31893 1.5425 1.24223 1.48832 1.12682 1.48832H0.912178Z" fill="white"/>
<path d="M1.74399 1.38065V1.51717C1.74399 1.72266 1.85095 1.81907 1.9917 1.81907C2.13315 1.81907 2.23941 1.72266 2.23941 1.51717V1.38065C2.23941 1.17586 2.13315 1.07101 1.9917 1.07101C1.85095 1.07101 1.74399 1.17586 1.74399 1.38065ZM1.59761 1.51717V1.38205C1.59761 1.10901 1.75243 0.945038 1.99311 0.945038C2.23378 0.945038 2.38579 1.10901 2.38579 1.38205V1.51717C2.38579 1.78881 2.23167 1.94504 1.99029 1.94504C1.74962 1.94504 1.59761 1.78881 1.59761 1.51717Z" fill="white"/>
<path d="M2.67713 1.38065V1.51717C2.67713 1.72266 2.7841 1.81907 2.92485 1.81907C3.0663 1.81907 3.17256 1.72266 3.17256 1.51717V1.38065C3.17256 1.17586 3.0663 1.07101 2.92485 1.07101C2.7841 1.07101 2.67713 1.17586 2.67713 1.38065ZM2.53076 1.51717V1.38205C2.53076 1.10901 2.68558 0.945038 2.92625 0.945038C3.16693 0.945038 3.31893 1.10901 3.31893 1.38205V1.51717C3.31893 1.78881 3.16482 1.94504 2.92344 1.94504C2.68276 1.94504 2.53076 1.78881 2.53076 1.51717Z" fill="white"/>
<path d="M4.21971 0.964742L3.86644 1.37502L4.2373 1.92533H4.05715L3.75947 1.47424L3.64758 1.5974V1.92533H3.50261V0.964742H3.64758V1.41794H3.65391L4.05363 0.964742H4.21971Z" fill="white"/>
<path d="M4.77425 1.92533H4.64406V0.964742H4.78762L5.09163 1.66706H5.09515L5.39846 0.964742H5.54202V1.92533H5.41112V1.24764H5.40549L5.14793 1.83174H5.03744L4.77917 1.24764H4.77425V1.92533Z" fill="white"/>
<path d="M6.35694 1.80077V1.92533H5.76721V0.964742H6.35694V1.0893H5.91147V1.37642H6.3316V1.49606H5.91147V1.80077H6.35694Z" fill="white"/>
</svg>
