<svg width="246" height="51" viewBox="0 0 246 51" fill="none" xmlns="http://www.w3.org/2000/svg">
<path d="M0.554688 1.78854H16.6211C32.0898 1.78854 37.8555 11.7026 37.8555 25.7299C37.8555 39.5464 32.3008 49.7768 16.6211 49.7768H0.554688V1.78854ZM7.79688 8.0112V43.5542H15.9883C25.6914 43.5542 30.3672 37.7534 30.3672 25.8354C30.3672 15.0776 26.5703 8.0112 15.9883 8.0112H7.79688Z" fill="white"/>
<path d="M51.7773 22.5659V29.3862C51.7773 39.6518 57.1211 44.4682 64.1523 44.4682C71.2188 44.4682 76.5273 39.6518 76.5273 29.3862V22.5659C76.5273 12.3354 71.2188 7.09714 64.1523 7.09714C57.1211 7.09714 51.7773 12.3354 51.7773 22.5659ZM44.4648 29.3862V22.6362C44.4648 8.99557 52.1992 0.804169 64.2227 0.804169C76.2461 0.804169 83.8398 8.99557 83.8398 22.6362V29.3862C83.8398 42.9565 76.1406 50.7612 64.082 50.7612C52.0586 50.7612 44.4648 42.9565 44.4648 29.3862Z" fill="white"/>
<path d="M99.8359 49.7768H93.0156V1.78854H99.5898L122.934 37.437H123.145V1.78854H130V49.7768H123.426L100.047 14.0581H99.8359V49.7768Z" fill="white"/>
<path d="M143.676 49.7768H136.328L153.062 1.78854H160.902L177.637 49.7768H169.867L165.402 36.0307H148.176L143.676 49.7768ZM156.93 9.66354H156.684L149.898 30.4057H163.68L156.93 9.66354Z" fill="white"/>
<path d="M195.707 49.7768H188.535V8.08151H174.227V1.78854H210.016V8.08151H195.707V49.7768Z" fill="white"/>
<path d="M245.664 43.5542V49.7768H216.203V1.78854H245.664V8.0112H223.41V22.3549H244.398V28.3315H223.41V43.5542H245.664Z" fill="white"/>
</svg>
