<svg width="6" height="2" viewBox="0 0 6 2" fill="none" xmlns="http://www.w3.org/2000/svg">
<path d="M0.356934 0.964742H0.678538C0.988179 0.964742 1.10359 1.16319 1.10359 1.44398C1.10359 1.72055 0.992402 1.92533 0.678538 1.92533H0.356934V0.964742ZM0.501902 1.0893V1.80077H0.665871C0.8601 1.80077 0.953696 1.68466 0.953696 1.44609C0.953696 1.23075 0.877694 1.0893 0.665871 1.0893H0.501902Z" fill="white"/>
<path d="M1.38227 1.38065V1.51717C1.38227 1.72266 1.48923 1.81907 1.62998 1.81907C1.77143 1.81907 1.87769 1.72266 1.87769 1.51717V1.38065C1.87769 1.17586 1.77143 1.07101 1.62998 1.07101C1.48923 1.07101 1.38227 1.17586 1.38227 1.38065ZM1.23589 1.51717V1.38205C1.23589 1.10901 1.39071 0.945038 1.63139 0.945038C1.87206 0.945038 2.02407 1.10901 2.02407 1.38205V1.51717C2.02407 1.78881 1.86995 1.94504 1.62857 1.94504C1.3879 1.94504 1.23589 1.78881 1.23589 1.51717Z" fill="white"/>
<path d="M2.34427 1.92533H2.20774V0.964742H2.33934L2.80662 1.67832H2.81084V0.964742H2.94807V1.92533H2.81647L2.34849 1.21034H2.34427V1.92533Z" fill="white"/>
<path d="M3.22182 1.92533H3.07474L3.40971 0.964742H3.56665L3.90162 1.92533H3.7461L3.65672 1.65018H3.31189L3.22182 1.92533ZM3.48712 1.12238H3.4822L3.34638 1.53758H3.62224L3.48712 1.12238Z" fill="white"/>
<path d="M4.26334 1.92533H4.11978V1.09071H3.83336V0.964742H4.54976V1.09071H4.26334V1.92533Z" fill="white"/>
<path d="M5.26334 1.80077V1.92533H4.67361V0.964742H5.26334V1.0893H4.81788V1.37642H5.238V1.49606H4.81788V1.80077H5.26334Z" fill="white"/>
</svg>
