<svg width="3" height="2" viewBox="0 0 3 2" fill="none" xmlns="http://www.w3.org/2000/svg">
<path d="M0.329325 1.92533H0.184357V0.964742H0.329325V1.92533Z" fill="white"/>
<path d="M0.688227 1.92533H0.551704V0.964742H0.683301L1.15058 1.67832H1.1548V0.964742H1.29203V1.92533H1.16043L0.69245 1.21034H0.688227V1.92533Z" fill="white"/>
<path d="M1.65937 1.92533H1.51441V0.964742H2.09639V1.09001H1.65937V1.39754H2.0598V1.52139H1.65937V1.92533Z" fill="white"/>
<path d="M2.35536 1.38065V1.51717C2.35536 1.72266 2.46233 1.81907 2.60308 1.81907C2.74453 1.81907 2.85079 1.72266 2.85079 1.51717V1.38065C2.85079 1.17586 2.74453 1.07101 2.60308 1.07101C2.46233 1.07101 2.35536 1.17586 2.35536 1.38065ZM2.20899 1.51717V1.38205C2.20899 1.10901 2.36381 0.945038 2.60448 0.945038C2.84516 0.945038 2.99716 1.10901 2.99716 1.38205V1.51717C2.99716 1.78881 2.84305 1.94504 2.60167 1.94504C2.36099 1.94504 2.20899 1.78881 2.20899 1.51717Z" fill="white"/>
</svg>
