<svg width="142" height="51" viewBox="0 0 142 51" fill="none" xmlns="http://www.w3.org/2000/svg">
<path d="M7.79688 49.4421H0.554688V1.45378H7.79688V49.4421Z" fill="white"/>
<path d="M25.7266 49.4421H18.9062V1.45378H25.4805L48.8242 37.1022H49.0352V1.45378H55.8906V49.4421H49.3164L25.9375 13.7233H25.7266V49.4421Z" fill="white"/>
<path d="M74.2422 49.4421H67V1.45378H96.0742V7.71159H74.2422V23.0749H94.2461V29.2624H74.2422V49.4421Z" fill="white"/>
<path d="M109.012 22.2311V29.0514C109.012 39.3171 114.355 44.1335 121.387 44.1335C128.453 44.1335 133.762 39.3171 133.762 29.0514V22.2311C133.762 12.0007 128.453 6.76237 121.387 6.76237C114.355 6.76237 109.012 12.0007 109.012 22.2311ZM101.699 29.0514V22.3014C101.699 8.66081 109.434 0.469406 121.457 0.469406C133.48 0.469406 141.074 8.66081 141.074 22.3014V29.0514C141.074 42.6217 133.375 50.4264 121.316 50.4264C109.293 50.4264 101.699 42.6217 101.699 29.0514Z" fill="white"/>
</svg>
