<svg width="8" height="2" viewBox="0 0 8 2" fill="none" xmlns="http://www.w3.org/2000/svg">
<path d="M0.337769 0.964742H0.698782C0.889493 0.964742 1.01053 1.09141 1.01053 1.27086C1.01053 1.45172 0.888789 1.57558 0.698078 1.57558H0.482033V1.92533H0.337769V0.964742ZM0.482033 1.08789V1.45383H0.617149C0.771266 1.45383 0.862047 1.41935 0.862047 1.27086C0.862047 1.15405 0.795193 1.08789 0.680485 1.08789H0.482033Z" fill="white"/>
<path d="M1.26599 1.38065V1.51717C1.26599 1.72266 1.37296 1.81907 1.5137 1.81907C1.65515 1.81907 1.76141 1.72266 1.76141 1.51717V1.38065C1.76141 1.17586 1.65515 1.07101 1.5137 1.07101C1.37296 1.07101 1.26599 1.17586 1.26599 1.38065ZM1.11961 1.51717V1.38205C1.11961 1.10901 1.27443 0.945038 1.51511 0.945038C1.75578 0.945038 1.90779 1.10901 1.90779 1.38205V1.51717C1.90779 1.78881 1.75367 1.94504 1.51229 1.94504C1.27162 1.94504 1.11961 1.78881 1.11961 1.51717Z" fill="white"/>
<path d="M2.45037 0.964742C2.66852 0.964742 2.76845 1.09986 2.76845 1.25679C2.76845 1.41443 2.67134 1.49535 2.59111 1.52491L2.78604 1.92533H2.62208L2.44755 1.55095H2.23502V1.92533H2.09146V0.964742H2.45037ZM2.23502 1.43202H2.42644C2.5517 1.43202 2.61856 1.3715 2.61856 1.26312C2.61856 1.1463 2.54326 1.08649 2.43066 1.08649H2.23502V1.43202Z" fill="white"/>
<path d="M3.2871 1.92533H3.14354V1.09071H2.85712V0.964742H3.57352V1.09071H3.2871V1.92533Z" fill="white"/>
<path d="M3.84234 1.92533H3.69737V0.964742H4.27936V1.09001H3.84234V1.39754H4.24277V1.52139H3.84234V1.92533Z" fill="white"/>
<path d="M4.53833 1.38065V1.51717C4.53833 1.72266 4.6453 1.81907 4.78604 1.81907C4.92749 1.81907 5.03376 1.72266 5.03376 1.51717V1.38065C5.03376 1.17586 4.92749 1.07101 4.78604 1.07101C4.6453 1.07101 4.53833 1.17586 4.53833 1.38065ZM4.39196 1.51717V1.38205C4.39196 1.10901 4.54678 0.945038 4.78745 0.945038C5.02813 0.945038 5.18013 1.10901 5.18013 1.38205V1.51717C5.18013 1.78881 5.02602 1.94504 4.78464 1.94504C4.54396 1.94504 4.39196 1.78881 4.39196 1.51717Z" fill="white"/>
<path d="M5.93946 1.79796V1.92533H5.36381V0.964742H5.50878V1.79796H5.93946Z" fill="white"/>
<path d="M6.2125 1.92533H6.06754V0.964742H6.2125V1.92533Z" fill="white"/>
<path d="M6.54255 1.38065V1.51717C6.54255 1.72266 6.64952 1.81907 6.79027 1.81907C6.93172 1.81907 7.03798 1.72266 7.03798 1.51717V1.38065C7.03798 1.17586 6.93172 1.07101 6.79027 1.07101C6.64952 1.07101 6.54255 1.17586 6.54255 1.38065ZM6.39618 1.51717V1.38205C6.39618 1.10901 6.551 0.945038 6.79167 0.945038C7.03235 0.945038 7.18436 1.10901 7.18436 1.38205V1.51717C7.18436 1.78881 7.03024 1.94504 6.78886 1.94504C6.54818 1.94504 6.39618 1.78881 6.39618 1.51717Z" fill="white"/>
</svg>
