<svg width="343" height="51" viewBox="0 0 343 51" fill="none" xmlns="http://www.w3.org/2000/svg">
<path d="M0.554688 1.56537H18.5898C28.1172 1.56537 34.1641 7.89349 34.1641 16.8583C34.1641 25.8935 28.082 32.081 18.5547 32.081H7.76172V49.5536H0.554688V1.56537ZM7.76172 7.71771V25.999H14.5117C22.2109 25.999 26.7461 24.2763 26.7461 16.8583C26.7461 11.0224 23.4062 7.71771 17.6758 7.71771H7.76172Z" fill="white"/>
<path d="M46.9258 22.3427V29.163C46.9258 39.4286 52.2695 44.2451 59.3008 44.2451C66.3672 44.2451 71.6758 39.4286 71.6758 29.163V22.3427C71.6758 12.1122 66.3672 6.87396 59.3008 6.87396C52.2695 6.87396 46.9258 12.1122 46.9258 22.3427ZM39.6133 29.163V22.413C39.6133 8.7724 47.3477 0.580994 59.3711 0.580994C71.3945 0.580994 78.9883 8.7724 78.9883 22.413V29.163C78.9883 42.7333 71.2891 50.538 59.2305 50.538C47.207 50.538 39.6133 42.7333 39.6133 29.163Z" fill="white"/>
<path d="M106.094 1.56537C116.992 1.56537 121.984 8.31537 121.984 16.1552C121.984 24.0302 117.133 28.0732 113.125 29.5497L122.863 49.5536H114.672L105.953 30.8505H95.3359V49.5536H88.1641V1.56537H106.094ZM95.3359 24.9091H104.898C111.156 24.9091 114.496 21.8857 114.496 16.4716C114.496 10.6357 110.734 7.6474 105.109 7.6474H95.3359V24.9091Z" fill="white"/>
<path d="M147.895 49.5536H140.723V7.85834H126.414V1.56537H162.203V7.85834H147.895V49.5536Z" fill="white"/>
<path d="M175.633 49.5536H168.391V1.56537H197.465V7.82318H175.633V23.1865H195.637V29.374H175.633V49.5536Z" fill="white"/>
<path d="M210.402 22.3427V29.163C210.402 39.4286 215.746 44.2451 222.777 44.2451C229.844 44.2451 235.152 39.4286 235.152 29.163V22.3427C235.152 12.1122 229.844 6.87396 222.777 6.87396C215.746 6.87396 210.402 12.1122 210.402 22.3427ZM203.09 29.163V22.413C203.09 8.7724 210.824 0.580994 222.848 0.580994C234.871 0.580994 242.465 8.7724 242.465 22.413V29.163C242.465 42.7333 234.766 50.538 222.707 50.538C210.684 50.538 203.09 42.7333 203.09 29.163Z" fill="white"/>
<path d="M280.398 43.1904V49.5536H251.641V1.56537H258.883V43.1904H280.398Z" fill="white"/>
<path d="M294.039 49.5536H286.797V1.56537H294.039V49.5536Z" fill="white"/>
<path d="M310.527 22.3427V29.163C310.527 39.4286 315.871 44.2451 322.902 44.2451C329.969 44.2451 335.277 39.4286 335.277 29.163V22.3427C335.277 12.1122 329.969 6.87396 322.902 6.87396C315.871 6.87396 310.527 12.1122 310.527 22.3427ZM303.215 29.163V22.413C303.215 8.7724 310.949 0.580994 322.973 0.580994C334.996 0.580994 342.59 8.7724 342.59 22.413V29.163C342.59 42.7333 334.891 50.538 322.832 50.538C310.809 50.538 303.215 42.7333 303.215 29.163Z" fill="white"/>
</svg>
