<svg width="7" height="2" viewBox="0 0 7 2" fill="none" xmlns="http://www.w3.org/2000/svg">
<path d="M0.263336 1.66203H0.405892C0.414319 1.74911 0.48946 1.82285 0.629909 1.82285C0.757718 1.82285 0.83637 1.76175 0.83637 1.66554C0.83637 1.5897 0.787213 1.54827 0.682578 1.52229L0.521061 1.48155C0.401679 1.45206 0.290724 1.37903 0.290724 1.22594C0.290724 1.04405 0.450836 0.945038 0.631314 0.945038C0.80828 0.945038 0.966988 1.03984 0.970499 1.22172H0.830752C0.823027 1.13605 0.757016 1.06653 0.629207 1.06653C0.515443 1.06653 0.436089 1.1206 0.436089 1.2154C0.436089 1.28001 0.479628 1.32706 0.570218 1.34883L0.730331 1.38956C0.875696 1.42608 0.982437 1.4942 0.982437 1.65361C0.982437 1.84181 0.827241 1.94504 0.617269 1.94504C0.356033 1.94504 0.266847 1.78984 0.263336 1.66203Z" fill="white"/>
<path d="M1.74367 1.80108V1.92537H1.15519V0.966808H1.74367V1.09111H1.29915V1.37762H1.71839V1.497H1.29915V1.80108H1.74367Z" fill="white"/>
<path d="M2.29143 0.966808C2.50912 0.966808 2.60884 1.10164 2.60884 1.25824C2.60884 1.41554 2.51193 1.4963 2.43188 1.5258L2.6264 1.92537H2.46277L2.28862 1.55178H2.07654V1.92537H1.93328V0.966808H2.29143ZM2.07654 1.4331H2.26755C2.39255 1.4331 2.45926 1.37271 2.45926 1.26456C2.45926 1.14799 2.38412 1.0883 2.27176 1.0883H2.07654V1.4331Z" fill="white"/>
<path d="M3.191 1.92537H3.03159L2.69452 0.966808H2.86025L3.11095 1.74911H3.11657L3.36516 0.966808H3.52738L3.191 1.92537Z" fill="white"/>
<path d="M3.80407 1.92537H3.6594V0.966808H3.80407V1.92537Z" fill="white"/>
<path d="M4.13272 1.38886V1.50894C4.13272 1.72313 4.22893 1.81863 4.37499 1.81863C4.51755 1.81863 4.59129 1.72804 4.59129 1.62411H4.73244V1.63184C4.73244 1.7779 4.61586 1.94504 4.37078 1.94504C4.13483 1.94504 3.98735 1.79335 3.98735 1.50964V1.38745C3.98735 1.10304 4.13693 0.947145 4.37148 0.947145C4.60674 0.947145 4.73244 1.11077 4.73244 1.27509V1.28212H4.59129C4.59129 1.17959 4.51544 1.07355 4.37218 1.07355C4.23033 1.07355 4.13272 1.17608 4.13272 1.38886Z" fill="white"/>
<path d="M5.49789 1.80108V1.92537H4.9094V0.966808H5.49789V1.09111H5.05336V1.37762H5.47261V1.497H5.05336V1.80108H5.49789Z" fill="white"/>
<path d="M5.61867 1.66203H5.76123C5.76966 1.74911 5.8448 1.82285 5.98525 1.82285C6.11306 1.82285 6.19171 1.76175 6.19171 1.66554C6.19171 1.5897 6.14255 1.54827 6.03792 1.52229L5.8764 1.48155C5.75702 1.45206 5.64606 1.37903 5.64606 1.22594C5.64606 1.04405 5.80617 0.945038 5.98665 0.945038C6.16362 0.945038 6.32233 1.03984 6.32584 1.22172H6.18609C6.17836 1.13605 6.11235 1.06653 5.98454 1.06653C5.87078 1.06653 5.79143 1.1206 5.79143 1.2154C5.79143 1.28001 5.83497 1.32706 5.92556 1.34883L6.08567 1.38956C6.23103 1.42608 6.33777 1.4942 6.33777 1.65361C6.33777 1.84181 6.18258 1.94504 5.97261 1.94504C5.71137 1.94504 5.62218 1.78984 5.61867 1.66203Z" fill="white"/>
</svg>
