<svg width="305" height="51" viewBox="0 0 305 51" fill="none" xmlns="http://www.w3.org/2000/svg">
<path d="M0.109375 36.4816H7.24609C7.66797 40.841 11.4297 44.5324 18.4609 44.5324C24.8594 44.5324 28.7969 41.4738 28.7969 36.6574C28.7969 32.8605 26.3359 30.7863 21.0977 29.4855L13.0117 27.4465C7.03516 25.9699 1.48047 22.3137 1.48047 14.6496C1.48047 5.54414 9.49609 0.587112 18.5312 0.587112C27.3906 0.587112 35.3359 5.33321 35.5117 14.4387H28.5156C28.1289 10.1496 24.8242 6.66914 18.4258 6.66914C12.7305 6.66914 8.75781 9.37617 8.75781 14.1223C8.75781 17.3566 10.9375 19.7121 15.4727 20.802L23.4883 22.841C30.7656 24.6691 36.1094 28.0793 36.1094 36.0598C36.1094 45.4816 28.3398 50.6496 17.8281 50.6496C4.75 50.6496 0.285156 42.8801 0.109375 36.4816Z" fill="white"/>
<path d="M74.2188 43.4426V49.6652H44.7578V1.67696H74.2188V7.89961H51.9648V22.2434H72.9531V28.2199H51.9648V43.4426H74.2188Z" fill="white"/>
<path d="M101.641 1.67696C112.539 1.67696 117.531 8.42696 117.531 16.2668C117.531 24.1418 112.68 28.1848 108.672 29.6613L118.41 49.6652H110.219L101.5 30.9621H90.8828V49.6652H83.7109V1.67696H101.641ZM90.8828 25.0207H100.445C106.703 25.0207 110.043 21.9973 110.043 16.5832C110.043 10.7473 106.281 7.75899 100.656 7.75899H90.8828V25.0207Z" fill="white"/>
<path d="M146.676 49.6652H138.695L121.82 1.67696H130.117L142.668 40.841H142.949L155.395 1.67696H163.516L146.676 49.6652Z" fill="white"/>
<path d="M177.367 49.6652H170.125V1.67696H177.367V49.6652Z" fill="white"/>
<path d="M193.82 22.8059V28.8176C193.82 39.5402 198.637 44.3215 205.949 44.3215C213.086 44.3215 216.777 39.7863 216.777 34.5832H223.844V34.9699C223.844 42.2824 218.008 50.6496 205.738 50.6496C193.926 50.6496 186.543 43.0559 186.543 28.8527V22.7355C186.543 8.49727 194.031 0.692581 205.773 0.692581C217.551 0.692581 223.844 8.88399 223.844 17.1105V17.4621H216.777C216.777 12.3293 212.98 7.02071 205.809 7.02071C198.707 7.02071 193.82 12.1535 193.82 22.8059Z" fill="white"/>
<path d="M262.164 43.4426V49.6652H232.703V1.67696H262.164V7.89961H239.91V22.2434H260.898V28.2199H239.91V43.4426H262.164Z" fill="white"/>
<path d="M268.211 36.4816H275.348C275.77 40.841 279.531 44.5324 286.562 44.5324C292.961 44.5324 296.898 41.4738 296.898 36.6574C296.898 32.8605 294.438 30.7863 289.199 29.4855L281.113 27.4465C275.137 25.9699 269.582 22.3137 269.582 14.6496C269.582 5.54414 277.598 0.587112 286.633 0.587112C295.492 0.587112 303.438 5.33321 303.613 14.4387H296.617C296.23 10.1496 292.926 6.66914 286.527 6.66914C280.832 6.66914 276.859 9.37617 276.859 14.1223C276.859 17.3566 279.039 19.7121 283.574 20.802L291.59 22.841C298.867 24.6691 304.211 28.0793 304.211 36.0598C304.211 45.4816 296.441 50.6496 285.93 50.6496C272.852 50.6496 268.387 42.8801 268.211 36.4816Z" fill="white"/>
</svg>
