<?xml version="1.0" encoding="UTF-8" standalone="no"?>
<!DOCTYPE svg PUBLIC "-//W3C//DTD SVG 1.1//EN" "http://www.w3.org/Graphics/SVG/1.1/DTD/svg11.dtd">
<svg width="100%" height="100%" viewBox="0 0 4484 1072" version="1.1" xmlns="http://www.w3.org/2000/svg" xmlns:xlink="http://www.w3.org/1999/xlink" xml:space="preserve" xmlns:serif="http://www.serif.com/" style="fill-rule:evenodd;clip-rule:evenodd;stroke-linejoin:round;stroke-miterlimit:2;">
    <g transform="matrix(5.55556,0,0,5.55556,-1266.43,-1466.78)">
        <g transform="matrix(0,-1,-1,0,324.382,264.021)">
            <path d="M-96.425,-96.425C-149.679,-96.425 -192.85,-53.254 -192.85,-0C-192.85,53.254 -149.679,96.425 -96.425,96.425C-43.171,96.425 -0,53.254 -0,-0C-0,-53.254 -43.171,-96.425 -96.425,-96.425" style="fill-rule:nonzero;"/>
        </g>
        <g transform="matrix(1,0,0,1,483.654,350.013)">
            <path d="M0,26.225L26.228,26.225L17.348,-2.36C16.883,-3.654 16.446,-5.181 16.028,-6.939C15.613,-8.695 15.171,-10.36 14.711,-11.934C14.247,-13.783 13.785,-15.681 13.323,-17.624L13.046,-17.624C12.49,-15.681 11.981,-13.783 11.519,-11.934C11.054,-10.36 10.617,-8.695 10.2,-6.939C9.785,-5.181 9.345,-3.654 8.883,-2.36L0,26.225ZM2.916,-36.495L23.73,-36.495L58.699,62.72L37.744,62.72L31.085,41.628L-4.717,41.628L-11.24,62.72L-31.636,62.72L2.916,-36.495Z" style="fill-rule:nonzero;"/>
        </g>
        <g transform="matrix(1,0,0,1,564.553,400.522)">
            <path d="M0,-47.596L0.418,-47.596C2.545,-51.665 4.949,-54.718 7.632,-56.754C10.316,-58.789 13.738,-59.807 17.901,-59.807C19.843,-59.807 21.323,-59.62 22.341,-59.252L22.341,-42.74L21.926,-42.74C15.727,-43.386 10.639,-42.045 6.661,-38.715C2.683,-35.385 0.694,-29.973 0.694,-22.48L0.694,12.211L-18.178,12.211L-18.178,-58.974L0,-58.974L0,-47.596Z" style="fill-rule:nonzero;"/>
        </g>
        <g transform="matrix(1,0,0,1,591.613,390.668)">
            <path d="M0,-49.12L9.851,-49.12L9.851,-71.323L28.305,-71.323L28.305,-49.12L40.519,-49.12L40.519,-36.631L28.305,-36.631L28.305,1.111C28.305,3.796 28.953,5.645 30.25,6.662C31.545,7.681 33.254,8.189 35.384,8.189L38.992,8.189C39.636,8.189 40.286,8.143 40.934,8.049L40.934,21.927C40.007,22.019 38.992,22.065 37.88,22.065C36.862,22.156 35.614,22.203 34.134,22.203L29.138,22.203C26.825,22.203 24.535,21.95 22.269,21.441C20.003,20.934 17.945,20.032 16.095,18.734C14.244,17.44 12.742,15.682 11.585,13.462C10.426,11.242 9.851,8.466 9.851,5.136L9.851,-36.631L0,-36.631L0,-49.12Z" style="fill-rule:nonzero;"/>
        </g>
        <g transform="matrix(1,0,0,1,684.026,311.575)">
            <path d="M0,103.24C-6.938,103.24 -13.345,101.967 -19.218,99.424C-25.094,96.88 -30.137,93.318 -34.344,88.739C-38.555,84.16 -41.838,78.748 -44.195,72.503C-46.555,66.259 -47.733,59.391 -47.733,51.898C-47.733,44.591 -46.624,37.767 -44.405,31.43C-42.184,25.095 -39.017,19.59 -34.898,14.917C-30.784,10.246 -25.788,6.591 -19.912,3.954C-14.039,1.318 -7.447,0 -0.138,0C5.967,0 11.425,0.856 16.236,2.567C21.044,4.279 25.185,6.639 28.654,9.643C32.123,12.652 34.875,16.19 36.911,20.259C38.945,24.331 40.242,28.724 40.795,33.442L20.814,33.442C19.89,28.446 17.624,24.446 14.014,21.439C10.407,18.433 5.69,16.928 -0.138,16.928C-4.766,16.928 -8.767,17.83 -12.142,19.635C-15.519,21.439 -18.316,23.915 -20.537,27.059C-22.756,30.204 -24.421,33.906 -25.533,38.16C-26.643,42.416 -27.199,46.995 -27.199,51.898C-27.199,56.987 -26.574,61.659 -25.323,65.912C-24.076,70.168 -22.272,73.846 -19.912,76.944C-17.552,80.044 -14.687,82.449 -11.309,84.16C-7.934,85.873 -4.163,86.726 0,86.726C5.92,86.726 10.8,85.131 14.64,81.939C18.476,78.748 20.723,74.516 21.37,69.243L41.075,69.243C40.795,73.683 39.733,77.915 37.882,81.939C36.032,85.964 33.442,89.549 30.112,92.693C26.687,95.933 22.549,98.5 17.694,100.395C12.836,102.29 6.938,103.24 0,103.24" style="fill-rule:nonzero;"/>
        </g>
        <g transform="matrix(1,0,0,1,764.81,400.245)">
            <path d="M0,-46.07C-4.996,-46.07 -8.786,-44.703 -11.375,-41.976C-13.97,-39.247 -15.68,-35.525 -16.51,-30.807L15.126,-30.807C14.85,-35.338 13.345,-39.014 10.617,-41.837C7.89,-44.659 4.349,-46.07 0,-46.07M1.527,14.57C-4.393,14.57 -9.643,13.599 -14.219,11.655C-18.8,9.713 -22.665,7.055 -25.807,3.677C-28.953,0.301 -31.337,-3.699 -32.953,-8.326C-34.574,-12.951 -35.382,-17.902 -35.382,-23.174C-35.382,-28.447 -34.527,-33.374 -32.814,-37.952C-31.105,-42.532 -28.701,-46.486 -25.6,-49.817C-22.501,-53.146 -18.8,-55.784 -14.501,-57.726C-10.197,-59.669 -5.455,-60.64 -0.277,-60.64C5.461,-60.64 10.501,-59.599 14.85,-57.519C19.198,-55.437 22.85,-52.499 25.81,-48.706C28.77,-44.912 31.016,-40.402 32.543,-35.177C34.07,-29.949 34.834,-24.145 34.834,-17.762L-16.786,-17.762C-16.05,-12.211 -14.175,-7.863 -11.17,-4.719C-8.166,-1.572 -3.978,-0.001 1.389,-0.001C5.09,-0.001 8.05,-0.785 10.269,-2.359C12.493,-3.932 14.108,-6.059 15.126,-8.742L33.722,-8.742C33.075,-5.597 31.896,-2.613 30.181,0.207C28.471,3.03 26.247,5.504 23.52,7.632C20.792,9.761 17.577,11.448 13.876,12.696C10.175,13.945 6.058,14.57 1.527,14.57" style="fill-rule:nonzero;"/>
        </g>
        <g transform="matrix(1,0,0,1,824.837,401.077)">
            <path d="M0,-49.816L0.415,-49.816C2.819,-53.701 5.71,-56.616 9.087,-58.558C12.462,-60.501 16.604,-61.472 21.506,-61.472C25.207,-61.472 28.56,-60.8 31.567,-59.459C34.571,-58.118 37.138,-56.269 39.268,-53.909C41.396,-51.55 43.061,-48.751 44.264,-45.514C45.465,-42.275 46.068,-38.715 46.068,-34.829L46.068,11.656L27.196,11.656L27.196,-32.055C27.196,-35.94 26.131,-39.083 24.004,-41.489C21.876,-43.895 18.822,-45.098 14.847,-45.098C10.684,-45.098 7.237,-43.593 4.509,-40.587C1.779,-37.58 0.415,-33.626 0.415,-28.724L0.415,11.656L-18.457,11.656L-18.457,-59.529L0,-59.529L0,-49.816Z" style="fill-rule:nonzero;"/>
        </g>
        <g transform="matrix(1,0,0,1,875.011,390.668)">
            <path d="M0,-49.12L9.854,-49.12L9.854,-71.323L28.308,-71.323L28.308,-49.12L40.519,-49.12L40.519,-36.631L28.308,-36.631L28.308,1.111C28.308,3.796 28.955,5.645 30.25,6.662C31.545,7.681 33.257,8.189 35.384,8.189L38.994,8.189C39.639,8.189 40.286,8.143 40.936,8.049L40.936,21.927C40.01,22.019 38.994,22.065 37.882,22.065C36.864,22.156 35.614,22.203 34.137,22.203L29.141,22.203C26.828,22.203 24.538,21.95 22.272,21.441C20.003,20.934 17.948,20.032 16.097,18.734C14.247,17.44 12.742,15.682 11.588,13.462C10.429,11.242 9.854,8.466 9.854,5.136L9.854,-36.631L0,-36.631L0,-49.12Z" style="fill-rule:nonzero;"/>
        </g>
        <g transform="matrix(1,0,0,1,953.689,400.245)">
            <path d="M0,-46.07C-4.996,-46.07 -8.789,-44.703 -11.378,-41.976C-13.97,-39.247 -15.68,-35.525 -16.512,-30.807L15.126,-30.807C14.847,-35.338 13.342,-39.014 10.614,-41.837C7.887,-44.659 4.349,-46.07 0,-46.07M1.527,14.57C-4.396,14.57 -9.643,13.599 -14.222,11.655C-18.803,9.713 -22.665,7.055 -25.81,3.677C-28.955,0.301 -31.337,-3.699 -32.956,-8.326C-34.577,-12.951 -35.384,-17.902 -35.384,-23.174C-35.384,-28.447 -34.53,-33.374 -32.817,-37.952C-31.108,-42.532 -28.701,-46.486 -25.603,-49.817C-22.504,-53.146 -18.803,-55.784 -14.501,-57.726C-10.2,-59.669 -5.458,-60.64 -0.277,-60.64C5.458,-60.64 10.498,-59.599 14.847,-57.519C19.196,-55.437 22.847,-52.499 25.81,-48.706C28.77,-44.912 31.014,-40.402 32.541,-35.177C34.068,-29.949 34.831,-24.145 34.831,-17.762L-16.789,-17.762C-16.05,-12.211 -14.178,-7.863 -11.171,-4.719C-8.166,-1.572 -3.978,-0.001 1.389,-0.001C5.087,-0.001 8.047,-0.785 10.269,-2.359C12.49,-3.932 14.106,-6.059 15.126,-8.742L33.719,-8.742C33.072,-5.597 31.893,-2.613 30.181,0.207C28.469,3.03 26.247,5.504 23.519,7.632C20.792,9.761 17.575,11.448 13.876,12.696C10.175,13.945 6.058,14.57 1.527,14.57" style="fill-rule:nonzero;"/>
        </g>
        <g transform="matrix(1,0,0,1,1012.66,400.522)">
            <path d="M0,-47.596L0.418,-47.596C2.545,-51.665 4.949,-54.718 7.632,-56.754C10.316,-58.789 13.738,-59.807 17.901,-59.807C19.843,-59.807 21.323,-59.62 22.341,-59.252L22.341,-42.74L21.926,-42.74C15.727,-43.386 10.637,-42.045 6.661,-38.715C2.683,-35.385 0.694,-29.973 0.694,-22.48L0.694,12.211L-18.178,12.211L-18.178,-58.974L0,-58.974L0,-47.596Z" style="fill-rule:nonzero;"/>
        </g>
    </g>
</svg>
