<?xml version="1.0" encoding="UTF-8" standalone="no"?>
<!DOCTYPE svg PUBLIC "-//W3C//DTD SVG 1.1//EN" "http://www.w3.org/Graphics/SVG/1.1/DTD/svg11.dtd">
<svg width="100%" height="100%" viewBox="0 0 222 80" version="1.1" xmlns="http://www.w3.org/2000/svg" xmlns:xlink="http://www.w3.org/1999/xlink" xml:space="preserve" xmlns:serif="http://www.serif.com/" style="fill-rule:evenodd;clip-rule:evenodd;stroke-linejoin:round;stroke-miterlimit:2;">
    <path d="M171.11,0L173.29,0C182.6,2.57 180.05,14.99 171.25,14.01C163.37,13.14 163.05,2.13 171.11,0Z" style="fill:white;fill-rule:nonzero;"/>
    <path d="M202,4.47C202,3.797 201.453,3.25 200.78,3.25L189.84,3.25C189.167,3.25 188.62,3.797 188.62,4.47L188.62,60.77C188.62,61.443 189.167,61.99 189.84,61.99L200.78,61.99C201.453,61.99 202,61.443 202,60.77L202,4.47Z" style="fill:white;"/>
    <path d="M138.83,25.33C138.67,30.857 138.683,38.413 138.87,48C138.98,53.34 144.03,54.02 148.06,52.6C148.094,52.588 148.129,52.577 148.163,52.567C149.049,52.313 149.989,52.837 150.244,53.728C150.254,53.762 150.262,53.796 150.27,53.83L151.5,59.33C151.767,60.537 151.327,61.37 150.18,61.83C138.66,66.48 125.49,63.96 125.4,48.75C125.353,40.97 125.347,33.303 125.38,25.75C125.38,25.747 125.38,25.743 125.38,25.74C125.38,25.146 124.894,24.655 124.3,24.65L119.79,24.58C119.364,24.569 119.02,24.22 119.02,23.8L118.99,17.64C118.983,16.832 119.543,16.122 120.33,15.94L125.76,14.66C126.133,14.573 126.383,14.353 126.51,14L130,4.67C130.14,4.297 130.41,4.11 130.81,4.11L138.19,4.15C138.486,4.15 138.73,4.394 138.73,4.69L138.76,13.5C138.76,14.043 139.207,14.49 139.75,14.49L148.25,14.5C148.795,14.505 149.24,14.955 149.24,15.5L149.25,23.17C149.25,23.173 149.25,23.177 149.25,23.18C149.25,23.961 148.611,24.605 147.83,24.61L139.52,24.65C139.149,24.65 138.841,24.954 138.83,25.33Z" style="fill:white;fill-rule:nonzero;"/>
    <path d="M89.94,24.69C89.087,27.017 89.757,28.66 91.95,29.62C97.083,31.873 102.253,34.1 107.46,36.3C111.133,37.853 113.107,40.923 113.38,45.51C114.58,65.26 91.1,64.11 78.76,60.69C77.14,60.24 76.27,59.95 76.26,58.02C76.24,55.5 76.24,53.01 76.26,50.55C76.261,50.457 76.272,50.365 76.292,50.274C76.449,49.578 77.146,49.134 77.836,49.289C77.927,49.31 78.016,49.34 78.1,49.38C82.26,51.32 99.73,56.79 100.38,48.1C100.406,47.727 100.292,47.356 100.06,47.06C98.787,45.42 97.247,44.263 95.44,43.59C92.807,42.603 88.86,40.947 83.6,38.62C79.78,36.927 77.467,34.137 76.66,30.25C74.84,21.53 79.15,16.22 87.34,13.73C95.773,11.177 104.073,12.223 112.24,16.87C112.555,17.052 112.689,17.443 112.55,17.78L109.38,25.37C109.181,25.851 108.709,26.167 108.188,26.167C107.987,26.167 107.789,26.12 107.61,26.03C103.26,23.87 95.13,21.32 90.51,24.01C90.237,24.17 90.047,24.397 89.94,24.69Z" style="fill:white;fill-rule:nonzero;"/>
    <path d="M35.23,19.76C35.288,19.972 35.483,20.12 35.702,20.12C35.854,20.12 35.997,20.05 36.09,19.93C44.02,9.73 62.63,10.38 67.24,22.65C68.22,25.257 68.687,30.033 68.64,36.98C68.593,44.813 68.597,52.59 68.65,60.31C68.65,60.312 68.65,60.313 68.65,60.315C68.653,61.1 68.014,61.747 67.235,61.75C67.233,61.75 67.232,61.75 67.23,61.75L56.52,61.75C56.518,61.75 56.517,61.75 56.515,61.75C55.808,61.748 55.228,61.168 55.23,60.465C55.23,60.464 55.23,60.462 55.23,60.46C55.29,52.653 55.28,44.773 55.2,36.82C55.16,32.787 55.07,30.443 54.93,29.79C53.77,24.19 48.14,22.55 43.3,24.25C38.08,26.08 36.93,32.11 36.87,37.25C36.783,44.99 36.74,52.66 36.74,60.26C36.74,61.077 36.067,61.75 35.25,61.75L24.5,61.75C23.814,61.75 23.25,61.186 23.25,60.5L23.25,15.2C23.25,15.198 23.25,15.197 23.25,15.195C23.253,14.466 23.851,13.867 24.575,13.87C24.576,13.87 24.578,13.87 24.58,13.87L32.81,13.88C33.2,13.881 33.546,14.137 33.66,14.51L35.23,19.76Z" style="fill:white;fill-rule:nonzero;"/>
    <path d="M0,61.44L0,14.55L12.51,14.37C13.083,14.363 13.37,14.647 13.37,15.22C13.37,15.22 13.37,60.55 13.37,60.55C13.37,61.159 12.869,61.66 12.26,61.66C12.253,61.66 12.247,61.66 12.24,61.66L0,61.44Z" style="fill:white;fill-rule:nonzero;"/>
    <path d="M193.65,80L187.5,80C179.133,79.227 172.317,75.707 167.05,69.44C166.83,69.18 166.587,69.16 166.32,69.38C156.03,78.07 145.94,79.1 132.98,80L131.92,80C133.427,77.213 135.353,74.663 137.7,72.35C137.927,72.123 138.203,72 138.53,71.98C147.53,71.46 155.88,68.85 162.43,62.45C162.677,62.203 162.743,61.913 162.63,61.58C159.117,51.513 158.67,41.32 161.29,31C162.91,24.63 168.06,13.91 176.11,21.92C177.37,23.18 178.323,25.773 178.97,29.7C180.937,41.673 178.677,52.67 172.19,62.69C171.997,62.983 172.007,63.27 172.22,63.55C183.78,79.04 207.35,71.56 220.1,62.02C220.224,61.928 220.374,61.879 220.528,61.879C220.923,61.879 221.248,62.204 221.248,62.599C221.248,62.653 221.242,62.707 221.23,62.76L219.21,71.27C219.117,71.65 218.9,71.94 218.56,72.14C210.887,76.687 202.583,79.307 193.65,80ZM170.13,28.58C166.81,35.36 166.66,46 168.3,53.22C168.4,53.66 168.54,53.673 168.72,53.26C172.207,45.353 173.013,37.167 171.14,28.7C171.084,28.455 170.865,28.28 170.614,28.28C170.409,28.28 170.221,28.397 170.13,28.58Z" style="fill:white;fill-rule:nonzero;"/>
</svg>
