<?xml version="1.0" encoding="UTF-8" standalone="no"?>
<!DOCTYPE svg PUBLIC "-//W3C//DTD SVG 1.1//EN" "http://www.w3.org/Graphics/SVG/1.1/DTD/svg11.dtd">
<svg width="100%" height="100%" viewBox="0 0 15176 15253" version="1.1" xmlns="http://www.w3.org/2000/svg" xmlns:xlink="http://www.w3.org/1999/xlink" xml:space="preserve" xmlns:serif="http://www.serif.com/" style="fill-rule:evenodd;clip-rule:evenodd;stroke-linejoin:round;stroke-miterlimit:2;">
    <g transform="matrix(5.55556,0,0,5.55556,-127.667,-127.665)">
        <g transform="matrix(5.55556,0,0,5.55556,-133.883,-87.9424)">
            <g transform="matrix(1.0032,0,0,1.0032,-0.0903194,-1.64467)">
                <path d="M190.43,150.99C179.99,131.22 176.61,110.97 182.08,89.23C191.79,48.81 226.47,24.178 267.26,21.72C311.27,19.068 350.72,46.21 361.77,89.17C367.01,110.063 364.67,130.027 354.75,149.06C350.997,157.047 346.613,164.64 341.6,171.84C328.333,191.18 312.629,208.727 294.48,224.47C290.567,227.864 286.72,230.819 282.94,233.34C276.599,237.569 272.721,240.628 266.06,236.72C261.434,234.006 257.073,230.943 252.98,227.53C233.386,211.19 216.457,192.427 202.19,171.24C197.783,164.733 193.863,157.983 190.43,150.99ZM53.68,331.8C35.52,312.29 27.09,286.94 28.36,260.16C29.087,243.673 33.921,228.567 42.86,214.84C54.234,197.374 69.97,185.401 90.07,178.92C112.004,171.848 133.249,173.343 153.81,183.4C170.416,191.522 185.73,201.737 199.75,214.05C212.25,224.463 223.677,236.027 234.02,248.75C237.168,252.622 239.98,256.711 242.45,261.02C245.314,266.018 244.05,269.77 241.2,274.18C235.628,282.801 228.82,291.097 220.78,299.07C209.96,310.357 198.307,320.513 185.82,329.54C162.67,347.39 133.8,361.741 104.51,357.55C84.577,354.698 67.633,346.113 53.68,331.8ZM517.55,255.28C520.13,276.28 516.439,295.579 506.48,313.18C489.958,342.379 458.2,360.133 424.41,358C407.8,356.951 391.68,349.69 377.36,340.87C352.28,325.44 327.994,303.884 309.92,280.34C308.293,278.22 306.932,276.262 305.83,274.47C302.176,268.526 301.486,265.157 305.19,259.31C311.03,250.092 317.907,241.637 325.8,233.93C346.84,211.9 374.02,190.51 403.82,179.37C414.447,175.39 425.417,173.879 436.73,174.84C480.95,178.596 512.69,211.69 517.55,255.28ZM206.72,487.29C183.86,463.66 174.11,427.64 186.9,396.42C190.573,387.067 195.157,378.163 200.65,369.71C217,344.43 239.194,319.392 263.82,302.3C265.886,300.866 268.212,299.665 270.8,298.71C274.178,297.464 277.281,298.898 280.1,300.61C284.969,303.567 289.571,306.895 293.91,310.59C313.695,327.437 330.64,346.707 344.76,368.38C350.02,376.44 354.463,384.81 358.09,393.49C371.18,422.41 365.64,456.12 346.11,480.64C340.49,487.46 334.82,492.8 329.1,496.66C291.07,522.36 239.98,520.15 206.72,487.29Z" style="fill:white;"/>
            </g>
        </g>
    </g>
</svg>
