<?xml version="1.0" encoding="UTF-8" standalone="no"?>
<!DOCTYPE svg PUBLIC "-//W3C//DTD SVG 1.1//EN" "http://www.w3.org/Graphics/SVG/1.1/DTD/svg11.dtd">
<svg width="100%" height="100%" viewBox="0 0 1603 256" version="1.1" xmlns="http://www.w3.org/2000/svg" xmlns:xlink="http://www.w3.org/1999/xlink" xml:space="preserve" xmlns:serif="http://www.serif.com/" style="fill-rule:evenodd;clip-rule:evenodd;stroke-linejoin:round;stroke-miterlimit:2;">
    <g transform="matrix(1,0,0,1,-12.8587,-8.25903)">
        <path d="M100.37,81.97C91.93,68.8 88.53,54.94 93.49,39.8C102.55,13.06 133.3,1.65 158.56,12.1C171.493,17.44 180.35,27.243 185.13,41.51C189.56,56.57 185.71,69.19 177.97,81.99C170.517,93.81 161.32,104.44 150.38,113.88C147.73,116.17 141.81,121.08 138.73,120.9C135.98,120.73 130.79,116.55 128.45,114.56C117.277,105.067 107.917,94.203 100.37,81.97ZM15.25,150.41C2.35,108.15 44.03,71.59 83,94.73C99.647,104.623 113.247,116.957 123.8,131.73C124.193,132.277 124.48,133.16 124.66,134.38C125.41,139.51 113.93,151.08 110.34,154.49C99.49,165.45 83.63,177.31 68.77,181.55C61.31,183.683 53.24,183.293 44.56,180.38C29.847,175.447 20.077,165.457 15.25,150.41ZM92.36,222.22C91.727,217.473 92.027,212.533 93.26,207.4C99.53,187.66 114.99,169.26 131.38,156.13C135.19,153.08 138.82,149.83 143.75,153.06C147.757,155.693 151.15,158.28 153.93,160.82C167.33,173.06 180.67,189.78 185.9,207.08C187.267,211.5 187.733,216.173 187.3,221.1C183.03,266.48 124.15,278.2 99.57,242.68C95.67,237.047 93.267,230.227 92.36,222.22ZM962.57,50.94C890.97,60.3 866.41,153.09 916.96,201.17C940.07,223.16 972.44,228.89 1002.96,220.13C1014.05,216.95 1023.96,211.607 1032.69,204.1C1032.7,204.092 1032.71,204.083 1032.72,204.076C1032.96,203.888 1033.32,203.937 1033.51,204.184C1033.52,204.193 1033.52,204.201 1033.53,204.21L1054.27,235C1054.51,235.348 1054.44,235.828 1054.11,236.1C1038.49,249.09 1019.99,257.99 999.99,261.62C962.17,268.493 927.907,260.897 897.2,238.83C833.84,193.3 827.66,98.15 885.31,45.07C920.77,12.43 968.33,2.17 1014.22,16.08C1028.52,20.42 1041.86,27.83 1054.24,38.31C1054.46,38.497 1054.5,38.826 1054.34,39.07L1033.5,69.97C1033.28,70.297 1033.02,70.333 1032.72,70.08C1013.42,53.74 987.3,47.7 962.57,50.94ZM388.22,224.5L321.48,224.52L321.475,224.52C320.904,224.517 320.437,224.05 320.44,223.485L320.44,223.48L321.35,11.2C321.35,10.9 321.5,10.75 321.8,10.75L364.26,10.75C364.607,10.75 364.777,10.92 364.77,11.26L364.05,189.02C364.05,189.34 364.207,189.5 364.52,189.5L402.02,189.5C402.4,189.5 402.657,189.323 402.79,188.97L472.27,12.26C472.443,11.823 472.771,11.466 473.19,11.26C474.377,10.673 475.247,11.087 475.8,12.5C508.153,95.073 540.62,177.94 573.2,261.1C573.367,261.533 573.217,261.75 572.75,261.75L530.99,261.75C530.652,261.749 530.35,261.542 530.23,261.23L516.75,225.25C516.617,224.897 516.36,224.72 515.98,224.72L431.57,224.83C431.248,224.83 430.959,225.031 430.85,225.33L417.34,261.33C417.24,261.61 417.04,261.75 416.74,261.75L374.79,261.75C374.383,261.75 374.257,261.56 374.41,261.18L388.6,225.07C388.753,224.69 388.627,224.5 388.22,224.5ZM443.84,191.53C443.826,191.568 443.819,191.609 443.819,191.65C443.819,191.842 443.977,192 444.169,192L503.811,192C504.003,192 504.161,191.842 504.161,191.65C504.161,191.609 504.154,191.568 504.14,191.53L474.32,112.47C474.271,112.33 474.138,112.237 473.99,112.237C473.842,112.237 473.709,112.33 473.66,112.47L443.84,191.53ZM593.58,49.5L542.42,49.5C542.19,49.5 542,49.31 542,49.08L542,12.91C542,12.68 542.19,12.49 542.42,12.49L689.09,12.49C689.32,12.49 689.51,12.68 689.51,12.91L689.5,49.08C689.5,49.31 689.31,49.5 689.08,49.5L638.42,49.5C638.19,49.5 638,49.69 638,49.92L638,261.33C638,261.56 637.81,261.75 637.58,261.75L594.42,261.75C594.19,261.75 594,261.56 594,261.33L594,49.92C594,49.69 593.81,49.5 593.58,49.5ZM746.75,141.12L746.75,226.12C746.75,226.323 746.917,226.49 747.12,226.49L833.14,226.5C833.343,226.5 833.51,226.667 833.51,226.87L833.5,261.38C833.5,261.583 833.333,261.75 833.13,261.75L705.62,261.75C705.417,261.75 705.25,261.583 705.25,261.38L705.25,12.86C705.25,12.657 705.417,12.49 705.62,12.49L825.63,12.49C825.833,12.49 826,12.657 826,12.86L826,46.88C826,47.083 825.833,47.25 825.63,47.25L747.12,47.25C746.917,47.25 746.75,47.417 746.75,47.62L746.75,107.38C746.75,107.583 746.917,107.75 747.12,107.75L825.63,107.75C825.833,107.75 826,107.917 826,108.12L826,140.38C826,140.583 825.833,140.75 825.63,140.75L747.12,140.75C746.917,140.75 746.75,140.917 746.75,141.12ZM1193.31,140.75L1109.44,140.75C1109.2,140.75 1109,140.949 1109,141.19L1109,261.31C1109,261.551 1108.8,261.75 1108.56,261.75L1067.93,261.75C1067.69,261.75 1067.49,261.551 1067.49,261.31L1067.49,12.96C1067.49,12.719 1067.69,12.52 1067.93,12.52L1108.56,12.48C1108.8,12.48 1109,12.679 1109,12.92L1109,107.31C1109,107.551 1109.2,107.75 1109.44,107.75L1193.31,107.75C1193.55,107.75 1193.75,107.551 1193.75,107.31L1193.75,12.93C1193.75,12.689 1193.95,12.49 1194.19,12.49L1234.81,12.49C1235.05,12.49 1235.25,12.689 1235.25,12.93L1235.25,261.31C1235.25,261.551 1235.05,261.75 1234.81,261.75L1194.19,261.75C1193.95,261.75 1193.75,261.551 1193.75,261.31L1193.75,141.19C1193.75,140.949 1193.55,140.75 1193.31,140.75ZM204.94,90.92C231.02,79.95 258.54,96.38 265.06,123.01C271.4,148.92 257.64,174.89 231.26,181.54C219.2,184.57 208.44,182.07 197.19,175.78C181.377,166.94 168.013,155.137 157.1,140.37C156.133,139.063 155.347,137.407 154.74,135.4C154.64,135.073 154.653,134.75 154.78,134.43C155.76,131.983 157.16,129.597 158.98,127.27C170.81,112.2 187.25,98.36 204.94,90.92ZM1407.2,202.6C1407.2,235.734 1379.93,263 1346.8,263C1313.67,263 1286.4,235.734 1286.4,202.6C1286.4,169.466 1313.67,142.2 1346.8,142.2C1379.93,142.2 1407.2,169.466 1407.2,202.6ZM1346.8,242.06C1367.08,242.06 1383.76,224.243 1383.76,202.59C1383.76,180.937 1367.08,163.12 1346.8,163.12C1326.52,163.12 1309.84,180.937 1309.84,202.59C1309.84,224.243 1326.52,242.06 1346.8,242.06ZM1592.97,227.75L1565.75,227.75C1565.42,227.75 1565.25,227.583 1565.25,227.25L1565.25,210.5C1565.25,210.167 1565.42,210 1565.75,210L1614.96,210C1615.24,210 1615.38,210.14 1615.39,210.42C1615.69,220.52 1613.68,229.737 1609.37,238.07C1595.67,264.55 1560.6,268.9 1535.92,256.12C1495.1,234.98 1492.28,178.45 1530.55,153.06C1551.91,138.88 1581.89,139.26 1602.07,156.38C1602.36,156.627 1602.41,156.913 1602.2,157.24L1592.02,172.98C1591.81,173.32 1591.55,173.357 1591.25,173.09C1577.85,161.37 1557.5,159.71 1543.08,169.49C1516.38,187.59 1521.47,231.7 1553.03,241.31C1565.87,245.22 1587.76,243.2 1593.29,228.22C1593.41,227.907 1593.3,227.75 1592.97,227.75ZM1438,228.5L1438,261.5C1438,261.833 1437.83,262 1437.5,262L1416.5,262C1416.17,262 1416,261.833 1416,261.5L1416,143.78C1416,143.467 1416.15,143.31 1416.46,143.31C1430.2,143.177 1439.96,143.163 1445.74,143.27C1473.36,143.79 1496.16,161.08 1492.87,191.03C1491.28,205.59 1482.8,217.17 1469.13,222.8C1468.92,222.888 1468.78,223.097 1468.78,223.327C1468.78,223.438 1468.81,223.547 1468.87,223.64L1493.87,261.32C1494.17,261.773 1494.05,262 1493.51,262L1470.29,262C1469.94,262 1469.68,261.853 1469.49,261.56L1447.86,228.43C1447.68,228.162 1447.38,228 1447.06,228L1438.5,228C1438.17,228 1438,228.167 1438,228.5ZM1437.95,163.12L1438.03,208.5C1438.03,208.643 1438.15,208.76 1438.29,208.76L1447.08,208.74C1460.36,208.716 1471.27,199.033 1471.25,187.29L1471.25,184.21L1471.25,184.208C1471.23,172.463 1460.28,162.817 1447,162.84L1447,162.84L1438.21,162.86C1438.07,162.86 1437.95,162.977 1437.95,163.12ZM1273.68,238.25C1280.57,238.25 1286.17,243.847 1286.17,250.74C1286.17,257.633 1280.57,263.23 1273.68,263.23C1266.79,263.23 1261.19,257.633 1261.19,250.74C1261.19,243.847 1266.79,238.25 1273.68,238.25Z" style="fill:white;"/>
    </g>
</svg>
