<?xml version="1.0" encoding="UTF-8" standalone="no"?>
<!DOCTYPE svg PUBLIC "-//W3C//DTD SVG 1.1//EN" "http://www.w3.org/Graphics/SVG/1.1/DTD/svg11.dtd">
<svg width="100%" height="100%" viewBox="0 0 346 144" version="1.1" xmlns="http://www.w3.org/2000/svg" xmlns:xlink="http://www.w3.org/1999/xlink" xml:space="preserve" xmlns:serif="http://www.serif.com/" style="fill-rule:evenodd;clip-rule:evenodd;stroke-linejoin:round;stroke-miterlimit:2;">
    <g transform="matrix(1,0,0,1,-223,-234)">
        <path d="M547.4,298C539.5,293.9 533.2,290.6 533.2,284.3C533.2,279.8 537,277.1 543.5,277.1C551.1,277.1 557.9,279.6 563.1,282.7L563.1,266.4C557.7,264.1 550.2,262.1 543.5,262.1C524.5,262.1 516,273.4 516,285.7C516,300.1 525.7,307 536.3,312.6C546.8,318.2 550.8,320.6 550.8,326.6C550.8,331.7 546.4,334.6 539,334.6C528.7,334.6 521.5,329.9 516.7,326.1L516.7,343.4C521.1,346.5 530.6,350.2 538.8,350.2C557.2,350.2 568.9,340.6 568.9,325.1C569,308.9 555.3,302.1 547.4,298Z" style="fill:white;fill-rule:nonzero;"/>
        <path d="M406.8,262.8L384,262.8L384,349.2L401,349.2L401,321.7L404.4,321.7C425.7,321.7 438.9,310.4 438.9,292.2C439,273.8 427,262.8 406.8,262.8ZM401,277.2L406,277.2C416,277.2 422.4,283 422.4,291.9C422.4,301.6 416.5,307.1 406.1,307.1L401,307.1L401,277.2Z" style="fill:white;fill-rule:nonzero;"/>
        <path d="M493.3,302.7C499.1,298.7 501.9,292.8 501.9,284.9C501.9,271.3 491.9,262.8 475.7,262.8L449.3,262.8L449.3,349.2L476.8,349.2C497.9,349.2 507.5,335.6 507.5,323C507.6,313.1 502.1,305.4 493.3,302.7ZM474.4,277.4C481.1,277.4 485.4,281.5 485.4,288C485.4,294.5 480.7,298.7 473.5,298.7L466.3,298.7L466.3,277.5L474.4,277.5L474.4,277.4ZM466.3,334.8L466.3,312.2L477.1,312.2C485.7,312.2 490.8,316.4 490.8,323.4C490.8,330.9 485.7,334.7 475.5,334.7L466.3,334.7L466.3,334.8Z" style="fill:white;fill-rule:nonzero;"/>
        <path d="M367,306C367,345.8 334.8,378 295,378C255.2,378 223,345.8 223,306C223,266.2 255.2,234 295,234C334.8,234 367,266.2 367,306ZM320.5,302.9L299.5,262.8L277.8,262.8C258.1,262.8 241.3,278.9 241.8,298.7C242.1,313.4 251.6,324.4 264.8,328.6L264.8,349.2L297.2,349.2L297.2,332L301.3,332C306.6,332 310.7,328 310.7,323.1L310.7,308.3L318.7,306.7C320.5,306.4 321.4,304.4 320.5,302.9ZM293.3,300.6C288.8,300.6 285.1,296.9 285.1,292.4C285.1,287.9 288.8,284.2 293.3,284.2C297.8,284.2 301.5,287.9 301.5,292.4C301.5,296.9 297.8,300.6 293.3,300.6ZM347.5,306.7C349.2,306.4 350.1,304.4 349.2,302.9L328.2,262.8L315.1,262.8L336.1,302.9C336.9,304.4 336,306.3 334.3,306.7L326.3,308.3L326.3,323.1C326.3,328 322.2,332 316.9,332L312.8,332L312.8,349.2L326,349.2L326,332L330.1,332C335.4,332 339.5,328.1 339.5,323.1L339.5,308.3L347.5,306.7Z" style="fill:white;"/>
    </g>
</svg>
