<?xml version="1.0" encoding="UTF-8" standalone="no"?>
<!DOCTYPE svg PUBLIC "-//W3C//DTD SVG 1.1//EN" "http://www.w3.org/Graphics/SVG/1.1/DTD/svg11.dtd">
<svg width="100%" height="100%" viewBox="0 0 6945 6914" version="1.1" xmlns="http://www.w3.org/2000/svg" xmlns:xlink="http://www.w3.org/1999/xlink" xml:space="preserve" xmlns:serif="http://www.serif.com/" style="fill-rule:evenodd;clip-rule:evenodd;stroke-linejoin:round;stroke-miterlimit:2;">
    <g transform="matrix(5.55556,0,0,5.55556,0,0)">
        <g transform="matrix(5.55556,0,0,5.55556,0,0)">
            <path d="M105.34,0L120.34,0C177.61,4.99 221.02,48.35 225,105.84L225,118.35C220.92,171.26 183.3,213.641 130.85,222.36C127.12,222.98 122.21,223.32 117.88,224L107.44,224C99.327,223.04 94.26,222.375 92.24,222C40.054,212.322 2.72,168.64 0,115.65L0,108.44C2.99,49.81 46.89,4.76 105.34,0ZM157.76,204.53C230.12,167.47 235.68,70.62 168.33,25.15C163.99,22.22 154.45,16.44 149.38,17.06C146.55,17.41 146.94,20.06 147.94,22.02C154.273,34.527 158.63,48.023 161.01,62.51C164.75,85.25 166.62,108.85 163.95,131.46C161.277,154.153 156.057,176.287 148.29,197.86C147.5,200.08 147.06,202.65 147.18,204.76C147.184,204.832 147.191,204.904 147.201,204.976C147.399,206.427 148.762,207.457 150.218,207.258C150.289,207.248 150.36,207.235 150.43,207.22C152.863,206.68 155.307,205.783 157.76,204.53ZM186.84,161.21C186.005,163.436 184.789,165.425 183.18,167.17C182.121,168.318 180.916,168.985 179.57,169.18C179.499,169.19 179.428,169.196 179.357,169.196C178.551,169.196 177.887,168.532 177.887,167.726C177.887,167.581 177.908,167.438 177.95,167.3C179.7,161.547 181.31,155.76 182.23,149.8C186.177,124.487 186.189,99.172 182.24,73.86C181.332,68.04 179.736,62.324 178.06,56.67C177.849,55.958 178.176,55.193 178.83,54.85C182.438,52.955 187.228,61.411 188.03,63.74C194.092,81.336 196.01,100.35 195.34,118.99C194.82,133.463 191.974,147.532 186.84,161.21ZM36.61,70.5C31.847,85.877 30.787,103.41 31,119.77C31.316,144.09 36.935,167.746 47.3,189.75C47.998,191.231 48.98,192.46 50.24,193.44C57.534,199.113 65.538,203.628 74.23,207.05C74.617,207.202 74.727,207.087 74.56,206.7C55.532,162.588 49.531,116.899 56.61,69.62C59.308,51.6 63.457,34.959 71.39,18.91C71.815,18.049 71.594,17.818 70.72,18.21C34.859,34.284 11.88,68.71 9.52,107.8L9.52,107.803C9.52,107.962 9.651,108.093 9.81,108.093C9.913,108.093 10.01,108.04 10.06,107.95C10.931,106.384 12.572,103.581 15.09,99.6C19.12,93.229 26.305,83.551 36.43,70.4C36.665,70.095 36.725,70.127 36.61,70.5ZM141.08,190.82C150.825,168.388 155.6,142.58 156.66,118.25C157.706,94.237 154.929,69.584 148.34,44.29C144.107,28.041 136.37,12.878 118.03,9.74C109.08,8.209 96.96,9.12 88.94,13.86C73.78,22.82 68.771,47.97 65.93,64.33C58.764,105.591 61.17,147.14 75.65,186.43C80.71,200.16 87.681,211.515 103.37,214.08C108.824,214.972 114.033,214.757 119,213.43C130.71,210.301 136.498,201.369 141.08,190.82ZM102.04,183.24C100.232,172.812 98.948,162.317 98.2,151.75C95.878,118.943 96.5,86.191 100.04,53.49C100.769,46.75 101.62,41.791 102.59,38.61C103.767,34.751 106.566,33.138 111,33.77C112.687,34.01 113.924,34.623 114.71,35.61C116.022,37.259 117.349,43.05 117.71,45.91C122.953,87.471 123.267,129.079 118.64,170.74C118.059,175.97 116.992,187.113 113.81,189.39C112.061,190.642 108.7,190.491 106.76,190.2C103.57,189.722 102.511,185.96 102.04,183.24Z" style="fill:white;"/>
        </g>
    </g>
</svg>
