<?xml version="1.0" encoding="UTF-8" standalone="no"?>
<!DOCTYPE svg PUBLIC "-//W3C//DTD SVG 1.1//EN" "http://www.w3.org/Graphics/SVG/1.1/DTD/svg11.dtd">
<svg xmlns="http://www.w3.org/2000/svg" version="1.1" viewBox="0.00 0.00 225.00 224.00">
<g stroke-width="2.00" fill="none" stroke-linecap="butt">
<path stroke="#808080" vector-effect="non-scaling-stroke" d="
  M 105.34 0.00
  C 46.89 4.76 2.99 49.81 0.00 108.44"
/>
<path stroke="#808080" vector-effect="non-scaling-stroke" d="
  M 120.34 0.00
  C 177.61 4.99 221.02 48.35 225.00 105.84"
/>
<path stroke="#808080" vector-effect="non-scaling-stroke" d="
  M 225.00 118.35
  C 220.92 171.26 183.30 213.64 130.85 222.36
  C 127.12 222.98 122.21 223.32 117.88 224.00"
/>
<path stroke="#808080" vector-effect="non-scaling-stroke" d="
  M 107.44 224.00
  Q 95.27 222.56 92.24 222.00
  C 40.06 212.29 2.72 168.64 0.00 115.65"
/>
<path stroke="#808080" vector-effect="non-scaling-stroke" d="
  M 141.08 190.82
  C 150.83 168.39 155.60 142.58 156.66 118.25
  Q 158.23 82.23 148.34 44.29
  C 144.11 28.04 136.37 12.88 118.03 9.74
  C 109.08 8.21 96.96 9.12 88.94 13.86
  C 73.78 22.82 68.77 47.97 65.93 64.33
  C 58.76 105.59 61.17 147.14 75.65 186.43
  C 80.71 200.16 87.68 211.52 103.37 214.08
  Q 111.55 215.42 119.00 213.43
  C 130.71 210.30 136.50 201.37 141.08 190.82"
/>
<path stroke="#808080" vector-effect="non-scaling-stroke" d="
  M 157.76 204.53
  C 230.12 167.47 235.68 70.62 168.33 25.15
  C 163.99 22.22 154.45 16.44 149.38 17.06
  C 146.55 17.41 146.94 20.06 147.94 22.02
  Q 157.44 40.78 161.01 62.51
  C 164.75 85.25 166.62 108.85 163.95 131.46
  Q 159.94 165.50 148.29 197.86
  C 147.50 200.08 147.06 202.65 147.18 204.76
  A 2.68 2.67 -7.8 0 0 150.43 207.22
  Q 154.08 206.41 157.76 204.53"
/>
<path stroke="#808080" vector-effect="non-scaling-stroke" d="
  M 36.61 70.50
  C 31.76 85.85 30.79 103.41 31.00 119.77
  C 31.32 144.09 36.97 167.73 47.30 189.75
  Q 48.35 191.97 50.24 193.44
  Q 61.18 201.95 74.23 207.05
  Q 74.81 207.28 74.56 206.70
  Q 46.00 140.54 56.61 69.62
  C 59.31 51.60 63.48 34.97 71.39 18.91
  Q 72.03 17.62 70.72 18.21
  C 34.83 34.22 11.88 68.71 9.52 107.80
  A 0.29 0.29 0.0 0 0 10.06 107.95
  Q 11.31 105.57 15.09 99.60
  Q 21.13 90.04 36.43 70.40
  Q 36.78 69.94 36.61 70.50"
/>
<path stroke="#808080" vector-effect="non-scaling-stroke" d="
  M 102.04 183.24
  C 102.51 185.96 103.57 189.72 106.76 190.20
  C 108.70 190.49 112.06 190.64 113.81 189.39
  C 116.99 187.11 118.06 175.97 118.64 170.74
  Q 125.59 108.25 117.71 45.91
  C 117.35 43.05 116.02 37.26 114.71 35.61
  Q 113.53 34.13 111.00 33.77
  Q 104.35 32.82 102.59 38.61
  Q 101.13 43.38 100.04 53.49
  Q 94.71 102.54 98.20 151.75
  Q 99.32 167.60 102.04 183.24"
/>
<path stroke="#808080" vector-effect="non-scaling-stroke" d="
  M 186.84 161.21
  Q 194.56 140.70 195.34 118.99
  C 196.01 100.35 194.11 81.33 188.03 63.74
  C 187.23 61.41 182.43 52.94 178.83 54.85
  A 1.56 1.55 68.1 0 0 178.06 56.67
  C 179.75 62.32 181.33 68.04 182.24 73.86
  Q 188.15 111.83 182.23 149.80
  C 181.31 155.76 179.71 161.55 177.95 167.30
  A 1.47 1.47 0.0 0 0 179.57 169.18
  Q 181.59 168.89 183.18 167.17
  Q 185.59 164.55 186.84 161.21"
/>
</g>
<path fill="#ffffff" d="
  M 0.00 0.00
  L 105.34 0.00
  C 46.89 4.76 2.99 49.81 0.00 108.44
  L 0.00 0.00
  Z"
/>
<path fill="#000000" d="
  M 105.34 0.00
  L 120.34 0.00
  C 177.61 4.99 221.02 48.35 225.00 105.84
  L 225.00 118.35
  C 220.92 171.26 183.30 213.64 130.85 222.36
  C 127.12 222.98 122.21 223.32 117.88 224.00
  L 107.44 224.00
  Q 95.27 222.56 92.24 222.00
  C 40.06 212.29 2.72 168.64 0.00 115.65
  L 0.00 108.44
  C 2.99 49.81 46.89 4.76 105.34 0.00
  Z
  M 141.08 190.82
  C 150.83 168.39 155.60 142.58 156.66 118.25
  Q 158.23 82.23 148.34 44.29
  C 144.11 28.04 136.37 12.88 118.03 9.74
  C 109.08 8.21 96.96 9.12 88.94 13.86
  C 73.78 22.82 68.77 47.97 65.93 64.33
  C 58.76 105.59 61.17 147.14 75.65 186.43
  C 80.71 200.16 87.68 211.52 103.37 214.08
  Q 111.55 215.42 119.00 213.43
  C 130.71 210.30 136.50 201.37 141.08 190.82
  Z
  M 157.76 204.53
  C 230.12 167.47 235.68 70.62 168.33 25.15
  C 163.99 22.22 154.45 16.44 149.38 17.06
  C 146.55 17.41 146.94 20.06 147.94 22.02
  Q 157.44 40.78 161.01 62.51
  C 164.75 85.25 166.62 108.85 163.95 131.46
  Q 159.94 165.50 148.29 197.86
  C 147.50 200.08 147.06 202.65 147.18 204.76
  A 2.68 2.67 -7.8 0 0 150.43 207.22
  Q 154.08 206.41 157.76 204.53
  Z
  M 36.61 70.50
  C 31.76 85.85 30.79 103.41 31.00 119.77
  C 31.32 144.09 36.97 167.73 47.30 189.75
  Q 48.35 191.97 50.24 193.44
  Q 61.18 201.95 74.23 207.05
  Q 74.81 207.28 74.56 206.70
  Q 46.00 140.54 56.61 69.62
  C 59.31 51.60 63.48 34.97 71.39 18.91
  Q 72.03 17.62 70.72 18.21
  C 34.83 34.22 11.88 68.71 9.52 107.80
  A 0.29 0.29 0.0 0 0 10.06 107.95
  Q 11.31 105.57 15.09 99.60
  Q 21.13 90.04 36.43 70.40
  Q 36.78 69.94 36.61 70.50
  Z"
/>
<path fill="#ffffff" d="
  M 120.34 0.00
  L 225.00 0.00
  L 225.00 105.84
  C 221.02 48.35 177.61 4.99 120.34 0.00
  Z"
/>
<path fill="#ffffff" d="
  M 141.08 190.82
  C 136.50 201.37 130.71 210.30 119.00 213.43
  Q 111.55 215.42 103.37 214.08
  C 87.68 211.52 80.71 200.16 75.65 186.43
  C 61.17 147.14 58.76 105.59 65.93 64.33
  C 68.77 47.97 73.78 22.82 88.94 13.86
  C 96.96 9.12 109.08 8.21 118.03 9.74
  C 136.37 12.88 144.11 28.04 148.34 44.29
  Q 158.23 82.23 156.66 118.25
  C 155.60 142.58 150.83 168.39 141.08 190.82
  Z
  M 102.04 183.24
  C 102.51 185.96 103.57 189.72 106.76 190.20
  C 108.70 190.49 112.06 190.64 113.81 189.39
  C 116.99 187.11 118.06 175.97 118.64 170.74
  Q 125.59 108.25 117.71 45.91
  C 117.35 43.05 116.02 37.26 114.71 35.61
  Q 113.53 34.13 111.00 33.77
  Q 104.35 32.82 102.59 38.61
  Q 101.13 43.38 100.04 53.49
  Q 94.71 102.54 98.20 151.75
  Q 99.32 167.60 102.04 183.24
  Z"
/>
<path fill="#ffffff" d="
  M 168.33 25.15
  C 235.68 70.62 230.12 167.47 157.76 204.53
  Q 154.08 206.41 150.43 207.22
  A 2.68 2.67 -7.8 0 1 147.18 204.76
  C 147.06 202.65 147.50 200.08 148.29 197.86
  Q 159.94 165.50 163.95 131.46
  C 166.62 108.85 164.75 85.25 161.01 62.51
  Q 157.44 40.78 147.94 22.02
  C 146.94 20.06 146.55 17.41 149.38 17.06
  C 154.45 16.44 163.99 22.22 168.33 25.15
  Z
  M 186.84 161.21
  Q 194.56 140.70 195.34 118.99
  C 196.01 100.35 194.11 81.33 188.03 63.74
  C 187.23 61.41 182.43 52.94 178.83 54.85
  A 1.56 1.55 68.1 0 0 178.06 56.67
  C 179.75 62.32 181.33 68.04 182.24 73.86
  Q 188.15 111.83 182.23 149.80
  C 181.31 155.76 179.71 161.55 177.95 167.30
  A 1.47 1.47 0.0 0 0 179.57 169.18
  Q 181.59 168.89 183.18 167.17
  Q 185.59 164.55 186.84 161.21
  Z"
/>
<path fill="#ffffff" d="
  M 36.43 70.40
  Q 21.13 90.04 15.09 99.60
  Q 11.31 105.57 10.06 107.95
  A 0.29 0.29 0.0 0 1 9.52 107.80
  C 11.88 68.71 34.83 34.22 70.72 18.21
  Q 72.03 17.62 71.39 18.91
  C 63.48 34.97 59.31 51.60 56.61 69.62
  Q 46.00 140.54 74.56 206.70
  Q 74.81 207.28 74.23 207.05
  Q 61.18 201.95 50.24 193.44
  Q 48.35 191.97 47.30 189.75
  C 36.97 167.73 31.32 144.09 31.00 119.77
  C 30.79 103.41 31.76 85.85 36.61 70.50
  Q 36.78 69.94 36.43 70.40
  Z"
/>
<path fill="#000000" d="
  M 106.76 190.20
  C 103.57 189.72 102.51 185.96 102.04 183.24
  Q 99.32 167.60 98.20 151.75
  Q 94.71 102.54 100.04 53.49
  Q 101.13 43.38 102.59 38.61
  Q 104.35 32.82 111.00 33.77
  Q 113.53 34.13 114.71 35.61
  C 116.02 37.26 117.35 43.05 117.71 45.91
  Q 125.59 108.25 118.64 170.74
  C 118.06 175.97 116.99 187.11 113.81 189.39
  C 112.06 190.64 108.70 190.49 106.76 190.20
  Z"
/>
<path fill="#000000" d="
  M 186.84 161.21
  Q 185.59 164.55 183.18 167.17
  Q 181.59 168.89 179.57 169.18
  A 1.47 1.47 0.0 0 1 177.95 167.30
  C 179.71 161.55 181.31 155.76 182.23 149.80
  Q 188.15 111.83 182.24 73.86
  C 181.33 68.04 179.75 62.32 178.06 56.67
  A 1.56 1.55 68.1 0 1 178.83 54.85
  C 182.43 52.94 187.23 61.41 188.03 63.74
  C 194.11 81.33 196.01 100.35 195.34 118.99
  Q 194.56 140.70 186.84 161.21
  Z"
/>
<path fill="#ffffff" d="
  M 0.00 115.65
  C 2.72 168.64 40.06 212.29 92.24 222.00
  Q 95.27 222.56 107.44 224.00
  L 0.00 224.00
  L 0.00 115.65
  Z"
/>
<path fill="#ffffff" d="
  M 225.00 118.35
  L 225.00 224.00
  L 117.88 224.00
  C 122.21 223.32 127.12 222.98 130.85 222.36
  C 183.30 213.64 220.92 171.26 225.00 118.35
  Z"
/>
</svg>
