<?xml version="1.0" encoding="UTF-8" standalone="no"?>
<!DOCTYPE svg PUBLIC "-//W3C//DTD SVG 1.1//EN" "http://www.w3.org/Graphics/SVG/1.1/DTD/svg11.dtd">
<svg width="100%" height="100%" viewBox="0 0 392 386" version="1.1" xmlns="http://www.w3.org/2000/svg" xmlns:xlink="http://www.w3.org/1999/xlink" xml:space="preserve" xmlns:serif="http://www.serif.com/" style="fill-rule:evenodd;clip-rule:evenodd;stroke-linejoin:round;stroke-miterlimit:2;">
    <g transform="matrix(1,0,0,1,-54.3047,-55.32)">
        <path d="M417.93,340.71C357.32,311.37 347.66,266.07 347.23,262.71C346.71,258.64 346.12,255.44 350.61,251.3C354.94,247.3 374.15,235.41 379.48,231.69C388.29,225.53 392.17,219.38 389.31,211.82C387.31,206.59 382.44,204.62 377.31,204.62C375.692,204.625 374.079,204.806 372.5,205.16C362.82,207.26 353.42,212.11 347.98,213.42C347.326,213.589 346.655,213.679 345.98,213.69C343.08,213.69 341.98,212.4 342.26,208.91C342.94,198.33 344.38,177.68 342.71,158.39C340.42,131.85 331.86,118.7 321.71,107.07C316.8,101.43 294,77.2 250,77.2C206,77.2 183.23,101.43 178.35,107C168.17,118.63 159.62,131.78 157.35,158.32C155.68,177.61 157.18,198.25 157.8,208.84C158,212.16 156.98,213.62 154.08,213.62C153.405,213.608 152.734,213.518 152.08,213.35C146.65,212.04 137.25,207.19 127.57,205.09C125.991,204.736 124.378,204.555 122.76,204.55C117.61,204.55 112.76,206.55 110.76,211.75C107.9,219.31 111.76,225.46 120.6,231.62C125.93,235.34 145.14,247.22 149.47,251.23C153.95,255.37 153.37,258.57 152.85,262.64C152.42,266.05 142.75,311.35 82.15,340.64C78.6,342.36 72.56,346 83.21,351.88C99.93,361.12 111.06,360.13 119.71,365.7C127.05,370.43 122.71,380.63 128.05,384.31C134.61,388.84 154,383.99 179.05,392.26C200.05,399.18 212.81,418.73 250.05,418.73C287.29,418.73 300.42,399.09 321.05,392.26C346.05,383.99 365.48,388.84 372.05,384.31C377.38,380.63 373.05,370.43 380.39,365.7C389.04,360.13 400.16,361.12 416.89,351.88C427.52,346.07 421.48,342.43 417.93,340.71Z" style="fill:white;fill-rule:nonzero;"/>
        <path d="M444.3,337.26C441.58,329.86 436.4,325.9 430.5,322.62C429.39,321.97 428.37,321.45 427.5,321.05C425.74,320.14 423.94,319.26 422.15,318.33C403.76,308.58 389.4,296.28 379.44,281.7C376.612,277.595 374.158,273.245 372.11,268.7C371.26,266.27 371.3,264.89 371.91,263.63C372.515,262.659 373.315,261.825 374.26,261.18C377.42,259.09 380.68,256.97 382.89,255.54C386.83,252.99 389.95,250.97 391.96,249.54C399.51,244.26 404.79,238.65 408.09,232.38C412.746,223.619 413.364,213.251 409.78,204C404.78,190.84 392.35,182.67 377.29,182.67C374.113,182.667 370.946,183.002 367.84,183.67C367.01,183.85 366.18,184.04 365.37,184.25C365.51,175.25 365.31,165.75 364.51,156.4C361.67,123.53 350.16,106.3 338.16,92.56C330.476,83.95 321.424,76.666 311.37,71C293.16,60.6 272.51,55.32 250,55.32C227.49,55.32 206.94,60.6 188.71,71C178.631,76.667 169.561,83.966 161.87,92.6C149.87,106.34 138.36,123.6 135.52,156.44C134.72,165.79 134.52,175.34 134.65,184.29C133.84,184.08 133.02,183.89 132.19,183.71C129.084,183.042 125.917,182.707 122.74,182.71C107.67,182.71 95.22,190.88 90.24,204.04C86.64,213.295 87.243,223.674 91.89,232.45C95.2,238.72 100.48,244.33 108.03,249.61C110.03,251.01 113.16,253.03 117.1,255.61C119.23,256.99 122.34,259.01 125.39,261.03C126.457,261.72 127.364,262.63 128.05,263.7C128.69,265.01 128.71,266.42 127.76,269.02C125.739,273.469 123.327,277.729 120.55,281.75C110.81,296 96.87,308.08 79.07,317.75C69.64,322.75 59.84,326.09 55.7,337.34C52.58,345.83 54.62,355.49 62.55,363.63C65.46,366.668 68.836,369.223 72.55,371.2C80.278,375.447 88.495,378.735 97.02,380.99C98.779,381.444 100.449,382.191 101.96,383.2C104.85,385.73 104.44,389.54 108.29,395.12C110.223,398.004 112.678,400.5 115.53,402.48C123.61,408.06 132.69,408.41 142.31,408.78C151,409.11 160.85,409.49 172.1,413.2C176.76,414.74 181.6,417.72 187.21,421.2C200.68,429.48 219.12,440.81 249.98,440.81C280.84,440.81 299.41,429.42 312.98,421.11C318.55,417.69 323.36,414.74 327.89,413.24C339.14,409.52 348.99,409.15 357.68,408.82C367.3,408.45 376.38,408.1 384.46,402.52C387.837,400.165 390.651,397.091 392.7,393.52C395.47,388.81 395.4,385.52 398,383.22C399.417,382.259 400.986,381.542 402.64,381.1C411.281,378.838 419.61,375.519 427.44,371.22C431.386,369.103 434.938,366.322 437.94,363L438.04,362.88C445.48,354.92 447.35,345.54 444.3,337.26ZM416.87,352C400.14,361.24 389.02,360.25 380.37,365.82C373.02,370.55 377.37,380.75 372.03,384.43C365.47,388.96 346.08,384.11 321.03,392.38C300.37,399.21 287.19,418.85 250.03,418.85C212.87,418.85 200,399.25 179,392.33C154,384.06 134.57,388.91 128,384.38C122.67,380.7 127,370.5 119.66,365.77C111,360.2 99.88,361.19 83.16,352C72.51,346.12 78.55,342.48 82.1,340.76C142.7,311.42 152.37,266.12 152.8,262.76C153.32,258.69 153.9,255.49 149.42,251.35C145.09,247.35 125.88,235.46 120.55,231.74C111.73,225.58 107.85,219.43 110.71,211.87C112.71,206.64 117.59,204.67 122.71,204.67C124.328,204.675 125.941,204.856 127.52,205.21C137.2,207.31 146.6,212.16 152.03,213.47C152.684,213.638 153.355,213.728 154.03,213.74C156.93,213.74 157.95,212.28 157.75,208.96C157.13,198.37 155.63,177.73 157.3,158.44C159.59,131.9 168.14,118.75 178.3,107.12C183.18,101.53 206.11,77.3 249.96,77.3C293.81,77.3 316.8,101.43 321.68,107C331.85,118.63 340.41,131.78 342.68,158.32C344.35,177.61 342.91,198.26 342.23,208.84C342,212.33 343.05,213.62 345.95,213.62C346.625,213.609 347.296,213.519 347.95,213.35C353.39,212.04 362.79,207.19 372.47,205.09C374.049,204.736 375.662,204.555 377.28,204.55C382.43,204.55 387.28,206.55 389.28,211.75C392.14,219.31 388.28,225.46 379.45,231.62C374.12,235.34 354.91,247.22 350.58,251.23C346.09,255.37 346.68,258.57 347.2,262.64C347.63,266.05 357.29,311.35 417.9,340.64C421.48,342.43 427.52,346.07 416.87,352Z" style="fill:white;fill-rule:nonzero;"/>
    </g>
</svg>
